# xmcd
#
# Track frame offsets:
#	150
#	34506
#	60327
#	83707
#	109827
#	133466
#	162891
#	192910
#	217914
#	231687
#	255088
#	277127
#	310163
#
# Disc length: 4462 seconds
#
# Revision: 1
# Processed by: cddbd v1.5PL3 Copyright (c) Steve Scherf et al.
# Submitted via: audiograbber 1.83.01
#
DISCID=b3116c0d
DTITLE=Sonny Moorman - Sonny's Blues
DYEAR=2003
DGENRE=Blues
TTITLE0=Drowing On Dry Land
TTITLE1=Crossroads
TTITLE2=Born Under A Bad Sign
TTITLE3=Rock Me Baby
TTITLE4=Blue Jean Blues
TTITLE5=A Fool For Your Stockings
TTITLE6=CC Rider
TTITLE7=Old Slow Blues
TTITLE8=Cincinnati Shuffle
TTITLE9=Dust My Broom
TTITLE10=You Shook Me
TTITLE11=Have You Ever Loved A Woman
TTITLE12=Sonny's Blues
EXTD=
EXTT0=
EXTT1=
EXTT2=
EXTT3=
EXTT4=
EXTT5=
EXTT6=
EXTT7=
EXTT8=
EXTT9=
EXTT10=
EXTT11=
EXTT12=
PLAYORDER=
